REM MD5 9b8aec100189855e5ce6fab2a39baf2e
FILE "Official U.S. PlayStation Magazine Demo Disc 17 (USA).bin" BINARY
  TRACK 01 MODE2/2352
    INDEX 01 00:00:00
  TRACK 02 AUDIO
    INDEX 00 62:57:68
    INDEX 01 62:59:68
  TRACK 03 AUDIO
    INDEX 00 64:54:40
    INDEX 01 64:56:40
  TRACK 04 AUDIO
    INDEX 00 68:36:35
    INDEX 01 68:38:35
REM LEADOUT 68:44:31
